<svg width="263" height="163" viewBox="0 0 263 163" fill="none" xmlns="http://www.w3.org/2000/svg">
<path d="M148 0H254.808C258.835 0 262.1 3.26469 262.1 7.29189V155.708C262.1 159.735 258.835 163 254.808 163H148V0Z" fill="#253D65"/>
<path d="M163.164 35V23.5469H166.875C168.281 23.5469 169.198 23.6042 169.625 23.7188C170.281 23.8906 170.831 24.2656 171.273 24.8438C171.716 25.4167 171.938 26.1589 171.938 27.0703C171.938 27.7734 171.81 28.3646 171.555 28.8438C171.299 29.3229 170.974 29.7005 170.578 29.9766C170.188 30.2474 169.789 30.4271 169.383 30.5156C168.831 30.625 168.031 30.6797 166.984 30.6797H165.477V35H163.164ZM165.477 25.4844V28.7344H166.742C167.654 28.7344 168.263 28.6745 168.57 28.5547C168.878 28.4349 169.117 28.2474 169.289 27.9922C169.466 27.737 169.555 27.4401 169.555 27.1016C169.555 26.6849 169.432 26.3411 169.188 26.0703C168.943 25.7995 168.633 25.6302 168.258 25.5625C167.982 25.5104 167.427 25.4844 166.594 25.4844H165.477ZM182.977 35H180.461L179.461 32.3984H174.883L173.938 35H171.484L175.945 23.5469H178.391L182.977 35ZM178.719 30.4688L177.141 26.2188L175.594 30.4688H178.719ZM183.625 31.2734L185.875 31.0547C186.01 31.8099 186.284 32.3646 186.695 32.7188C187.112 33.0729 187.672 33.25 188.375 33.25C189.12 33.25 189.68 33.0938 190.055 32.7812C190.435 32.4635 190.625 32.0938 190.625 31.6719C190.625 31.401 190.544 31.1719 190.383 30.9844C190.227 30.7917 189.951 30.625 189.555 30.4844C189.284 30.3906 188.667 30.224 187.703 29.9844C186.464 29.6771 185.594 29.2995 185.094 28.8516C184.391 28.2214 184.039 27.4531 184.039 26.5469C184.039 25.9635 184.203 25.4193 184.531 24.9141C184.865 24.4036 185.341 24.0156 185.961 23.75C186.586 23.4844 187.339 23.3516 188.219 23.3516C189.656 23.3516 190.737 23.6667 191.461 24.2969C192.19 24.9271 192.573 25.7682 192.609 26.8203L190.297 26.9219C190.198 26.3333 189.984 25.9115 189.656 25.6562C189.333 25.3958 188.846 25.2656 188.195 25.2656C187.523 25.2656 186.997 25.4036 186.617 25.6797C186.372 25.8568 186.25 26.0938 186.25 26.3906C186.25 26.6615 186.365 26.8932 186.594 27.0859C186.885 27.3307 187.594 27.5859 188.719 27.8516C189.844 28.1172 190.674 28.3932 191.211 28.6797C191.753 28.9609 192.174 29.349 192.477 29.8438C192.784 30.3333 192.938 30.9401 192.938 31.6641C192.938 32.3203 192.755 32.9349 192.391 33.5078C192.026 34.0807 191.51 34.5078 190.844 34.7891C190.177 35.0651 189.346 35.2031 188.352 35.2031C186.904 35.2031 185.792 34.8698 185.016 34.2031C184.24 33.5312 183.776 32.5547 183.625 31.2734ZM194.297 31.2734L196.547 31.0547C196.682 31.8099 196.956 32.3646 197.367 32.7188C197.784 33.0729 198.344 33.25 199.047 33.25C199.792 33.25 200.352 33.0938 200.727 32.7812C201.107 32.4635 201.297 32.0938 201.297 31.6719C201.297 31.401 201.216 31.1719 201.055 30.9844C200.898 30.7917 200.622 30.625 200.227 30.4844C199.956 30.3906 199.339 30.224 198.375 29.9844C197.135 29.6771 196.266 29.2995 195.766 28.8516C195.062 28.2214 194.711 27.4531 194.711 26.5469C194.711 25.9635 194.875 25.4193 195.203 24.9141C195.536 24.4036 196.013 24.0156 196.633 23.75C197.258 23.4844 198.01 23.3516 198.891 23.3516C200.328 23.3516 201.409 23.6667 202.133 24.2969C202.862 24.9271 203.245 25.7682 203.281 26.8203L200.969 26.9219C200.87 26.3333 200.656 25.9115 200.328 25.6562C200.005 25.3958 199.518 25.2656 198.867 25.2656C198.195 25.2656 197.669 25.4036 197.289 25.6797C197.044 25.8568 196.922 26.0938 196.922 26.3906C196.922 26.6615 197.036 26.8932 197.266 27.0859C197.557 27.3307 198.266 27.5859 199.391 27.8516C200.516 28.1172 201.346 28.3932 201.883 28.6797C202.424 28.9609 202.846 29.349 203.148 29.8438C203.456 30.3333 203.609 30.9401 203.609 31.6641C203.609 32.3203 203.427 32.9349 203.062 33.5078C202.698 34.0807 202.182 34.5078 201.516 34.7891C200.849 35.0651 200.018 35.2031 199.023 35.2031C197.576 35.2031 196.464 34.8698 195.688 34.2031C194.911 33.5312 194.448 32.5547 194.297 31.2734ZM205.555 35V23.5469H209.266C210.672 23.5469 211.589 23.6042 212.016 23.7188C212.672 23.8906 213.221 24.2656 213.664 24.8438C214.107 25.4167 214.328 26.1589 214.328 27.0703C214.328 27.7734 214.201 28.3646 213.945 28.8438C213.69 29.3229 213.365 29.7005 212.969 29.9766C212.578 30.2474 212.18 30.4271 211.773 30.5156C211.221 30.625 210.422 30.6797 209.375 30.6797H207.867V35H205.555ZM207.867 25.4844V28.7344H209.133C210.044 28.7344 210.654 28.6745 210.961 28.5547C211.268 28.4349 211.508 28.2474 211.68 27.9922C211.857 27.737 211.945 27.4401 211.945 27.1016C211.945 26.6849 211.823 26.3411 211.578 26.0703C211.333 25.7995 211.023 25.6302 210.648 25.5625C210.372 25.5104 209.818 25.4844 208.984 25.4844H207.867ZM215.758 29.3438C215.758 28.1771 215.932 27.1979 216.281 26.4062C216.542 25.8229 216.896 25.2995 217.344 24.8359C217.797 24.3724 218.292 24.0286 218.828 23.8047C219.542 23.5026 220.365 23.3516 221.297 23.3516C222.984 23.3516 224.333 23.875 225.344 24.9219C226.359 25.9688 226.867 27.4245 226.867 29.2891C226.867 31.138 226.365 32.5859 225.359 33.6328C224.354 34.6745 223.01 35.1953 221.328 35.1953C219.625 35.1953 218.271 34.6771 217.266 33.6406C216.26 32.599 215.758 31.1667 215.758 29.3438ZM218.141 29.2656C218.141 30.5625 218.44 31.5469 219.039 32.2188C219.638 32.8854 220.398 33.2188 221.32 33.2188C222.242 33.2188 222.997 32.888 223.586 32.2266C224.18 31.5599 224.477 30.5625 224.477 29.2344C224.477 27.9219 224.188 26.9427 223.609 26.2969C223.036 25.651 222.273 25.3281 221.32 25.3281C220.367 25.3281 219.599 25.6562 219.016 26.3125C218.432 26.9635 218.141 27.9479 218.141 29.2656ZM228.688 35V23.5469H233.555C234.779 23.5469 235.667 23.651 236.219 23.8594C236.776 24.0625 237.221 24.4271 237.555 24.9531C237.888 25.4792 238.055 26.0807 238.055 26.7578C238.055 27.6172 237.802 28.3281 237.297 28.8906C236.792 29.4479 236.036 29.7995 235.031 29.9453C235.531 30.237 235.943 30.5573 236.266 30.9062C236.594 31.2552 237.034 31.875 237.586 32.7656L238.984 35H236.219L234.547 32.5078C233.953 31.6172 233.547 31.0573 233.328 30.8281C233.109 30.5938 232.878 30.4349 232.633 30.3516C232.388 30.263 232 30.2188 231.469 30.2188H231V35H228.688ZM231 28.3906H232.711C233.82 28.3906 234.513 28.3438 234.789 28.25C235.065 28.1562 235.281 27.9948 235.438 27.7656C235.594 27.5365 235.672 27.25 235.672 26.9062C235.672 26.5208 235.568 26.2109 235.359 25.9766C235.156 25.737 234.867 25.5859 234.492 25.5234C234.305 25.4974 233.742 25.4844 232.805 25.4844H231V28.3906ZM242.82 35V25.4844H239.422V23.5469H248.523V25.4844H245.133V35H242.82Z" fill="#F3D94E"/>
<path fill-rule="evenodd" clip-rule="evenodd" d="M221.662 130.215C221.662 129.544 221.118 129 220.447 129H189.68C189.009 129 188.465 129.544 188.465 130.215V135.11C188.465 135.781 189.009 136.325 189.68 136.325H198.057C198.636 136.325 199.123 135.911 199.328 135.37C200.204 133.062 202.441 131.421 205.063 131.421C207.685 131.421 209.922 133.062 210.798 135.37C211.004 135.911 211.49 136.325 212.069 136.325H220.447C221.118 136.325 221.662 135.781 221.662 135.11V130.215Z" fill="#F3D94E"/>
<circle cx="205.066" cy="137.589" r="3.5814" fill="#F3D94E"/>
<path fill-rule="evenodd" clip-rule="evenodd" d="M188.467 144.835C188.467 145.507 189.011 146.051 189.682 146.051L220.449 146.051C221.12 146.051 221.664 145.507 221.664 144.835L221.664 139.941C221.664 139.27 221.12 138.725 220.449 138.725L212.072 138.725C211.493 138.725 211.006 139.14 210.801 139.681C209.925 141.989 207.688 143.629 205.066 143.629C202.444 143.629 200.207 141.989 199.331 139.681C199.125 139.14 198.639 138.725 198.06 138.725L189.682 138.725C189.011 138.725 188.467 139.27 188.467 139.941L188.467 144.835Z" fill="#F3D94E"/>
<path d="M205 114.027H204.999C187.062 114.028 172.54 99.5838 172.541 81.7852L172.541 81.7848C172.538 63.9854 187.061 49.5414 205.001 49.5414C222.937 49.5414 237.46 63.9853 237.459 81.7839V81.7841C237.46 99.5838 222.936 114.029 205 114.027Z" stroke="#F3D94E" stroke-width="3.0828" stroke-miterlimit="10"/>
<path d="M205 48.125V115.448" stroke="#F3D94E" stroke-width="3.0828" stroke-miterlimit="10"/>
<path d="M238.875 81.7852H171.121" stroke="#F3D94E" stroke-width="3.0828" stroke-miterlimit="10"/>
<mask id="path-9-inside-1_63364_21856" fill="white">
<path d="M203.355 48.1992C203.355 48.1992 186.715 50.9268 186.715 81.7853C186.715 112.644 203.355 115.323 203.355 115.323"/>
</mask>
<path d="M203.355 48.1992C202.857 45.157 202.854 45.1575 202.851 45.1579C202.85 45.1581 202.847 45.1586 202.845 45.1589C202.841 45.1596 202.837 45.1604 202.832 45.1611C202.823 45.1627 202.813 45.1645 202.801 45.1666C202.779 45.1706 202.752 45.1755 202.721 45.1815C202.66 45.1934 202.582 45.2094 202.49 45.2302C202.305 45.2719 202.06 45.3332 201.764 45.421C201.173 45.5963 200.373 45.878 199.437 46.3208C197.56 47.2086 195.143 48.74 192.762 51.3374C187.959 56.579 183.632 65.788 183.632 81.7853H189.798C189.798 66.924 193.791 59.34 197.308 55.5032C199.087 53.5614 200.83 52.4822 202.073 51.8944C202.697 51.5993 203.198 51.4268 203.516 51.3324C203.675 51.2853 203.788 51.2579 203.847 51.2445C203.877 51.2379 203.893 51.2347 203.894 51.2345C203.895 51.2343 203.892 51.2349 203.885 51.2361C203.882 51.2367 203.878 51.2374 203.873 51.2383C203.87 51.2388 203.867 51.2392 203.864 51.2398C203.862 51.24 203.86 51.2404 203.859 51.2406C203.857 51.241 203.854 51.2414 203.355 48.1992ZM183.632 81.7853C183.632 97.7821 187.958 106.981 192.765 112.212C195.147 114.804 197.565 116.329 199.444 117.212C200.38 117.653 201.18 117.932 201.772 118.106C202.068 118.193 202.313 118.253 202.498 118.294C202.59 118.315 202.668 118.331 202.729 118.343C202.76 118.348 202.787 118.353 202.81 118.357C202.821 118.359 202.831 118.361 202.841 118.363C202.845 118.363 202.85 118.364 202.854 118.365C202.856 118.365 202.859 118.366 202.86 118.366C202.863 118.366 202.865 118.367 203.355 115.323C203.845 112.279 203.848 112.28 203.851 112.28C203.851 112.28 203.854 112.281 203.855 112.281C203.859 112.282 203.861 112.282 203.864 112.283C203.869 112.283 203.873 112.284 203.877 112.285C203.884 112.286 203.886 112.286 203.886 112.286C203.884 112.286 203.868 112.283 203.839 112.276C203.78 112.263 203.667 112.236 203.508 112.19C203.19 112.096 202.69 111.925 202.067 111.632C200.825 111.049 199.083 109.975 197.305 108.04C193.792 104.217 189.798 96.6469 189.798 81.7853H183.632Z" fill="#F3D94E" mask="url(#path-9-inside-1_63364_21856)"/>
<mask id="path-11-inside-2_63364_21856" fill="white">
<path d="M206.555 48.1992C206.555 48.1992 222.484 50.9267 222.484 81.7852C222.484 112.644 206.555 115.37 206.555 115.37"/>
</mask>
<path d="M206.555 48.1992C206.034 51.2378 206.032 51.2373 206.029 51.2369C206.028 51.2367 206.026 51.2363 206.024 51.236C206.021 51.2354 206.018 51.2349 206.015 51.2344C206.009 51.2334 206.005 51.2325 206.001 51.2318C205.993 51.2304 205.989 51.2296 205.989 51.2295C205.988 51.2293 206 51.2318 206.026 51.2379C206.078 51.25 206.18 51.2761 206.327 51.3216C206.622 51.4127 207.091 51.5812 207.678 51.8714C208.847 52.4489 210.503 53.5173 212.202 55.4534C215.566 59.2881 219.401 66.8905 219.401 81.7852H225.567C225.567 65.8214 221.437 56.6308 216.837 51.3872C214.553 48.784 212.227 47.2419 210.409 46.3437C209.503 45.8961 208.728 45.6104 208.151 45.4318C207.862 45.3425 207.623 45.2798 207.441 45.2369C207.35 45.2154 207.273 45.1989 207.212 45.1865C207.181 45.1803 207.155 45.1751 207.132 45.1708C207.12 45.1687 207.11 45.1668 207.1 45.1651C207.096 45.1642 207.091 45.1634 207.087 45.1627C207.085 45.1623 207.082 45.1618 207.081 45.1616C207.078 45.1611 207.075 45.1606 206.555 48.1992ZM219.401 81.7852C219.401 96.6799 215.566 104.282 212.202 108.116C210.504 110.052 208.847 111.12 207.678 111.698C207.091 111.988 206.622 112.156 206.328 112.247C206.181 112.293 206.078 112.319 206.026 112.331C206.001 112.337 205.988 112.34 205.989 112.339C205.989 112.339 205.993 112.339 206.001 112.337C206.005 112.336 206.01 112.336 206.015 112.335C206.018 112.334 206.021 112.333 206.024 112.333C206.026 112.333 206.028 112.332 206.029 112.332C206.032 112.332 206.035 112.331 206.555 115.37C207.075 118.408 207.078 118.408 207.08 118.407C207.082 118.407 207.085 118.407 207.087 118.406C207.091 118.406 207.095 118.405 207.1 118.404C207.11 118.402 207.12 118.4 207.131 118.398C207.154 118.394 207.181 118.389 207.212 118.382C207.273 118.37 207.35 118.354 207.441 118.332C207.623 118.289 207.862 118.227 208.151 118.137C208.728 117.959 209.503 117.673 210.409 117.226C212.227 116.327 214.553 114.786 216.837 112.183C221.437 106.939 225.567 97.749 225.567 81.7852H219.401Z" fill="#F3D94E" mask="url(#path-11-inside-2_63364_21856)"/>
<mask id="path-13-inside-3_63364_21856" fill="white">
<path d="M178.773 60.0664C178.773 60.0664 184.237 70.9249 205.001 70.9249C225.764 70.9249 231.228 60.0664 231.228 60.0664"/>
</mask>
<path d="M178.773 60.0664C176.02 61.4521 176.021 61.4542 176.022 61.4564C176.022 61.4571 176.023 61.4593 176.024 61.4608C176.026 61.4639 176.027 61.4672 176.029 61.4706C176.032 61.4774 176.036 61.4849 176.041 61.493C176.049 61.5093 176.059 61.5283 176.07 61.5498C176.093 61.5928 176.123 61.646 176.158 61.7088C176.229 61.8343 176.326 61.998 176.452 62.1944C176.703 62.5871 177.069 63.1109 177.57 63.7205C178.573 64.9411 180.116 66.5021 182.358 68.0387C186.875 71.1336 194.05 74.0077 205.001 74.0077V67.8421C195.188 67.8421 189.25 65.2869 185.844 62.9526C184.124 61.7746 183.003 60.6209 182.333 59.8056C181.998 59.3972 181.774 59.0727 181.646 58.8716C181.581 58.771 181.541 58.7015 181.522 58.6679C181.512 58.6512 181.508 58.6434 181.509 58.6453C181.51 58.6463 181.511 58.6496 181.514 58.6555C181.516 58.6584 181.518 58.662 181.52 58.6662C181.521 58.6683 181.522 58.6705 181.523 58.673C181.524 58.6742 181.525 58.6761 181.525 58.6767C181.526 58.6787 181.527 58.6807 178.773 60.0664ZM205.001 74.0077C215.952 74.0077 223.127 71.1336 227.643 68.0387C229.886 66.5021 231.428 64.9411 232.432 63.7205C232.933 63.1109 233.298 62.5871 233.55 62.1944C233.675 61.998 233.772 61.8343 233.844 61.7088C233.879 61.646 233.908 61.5928 233.931 61.5498C233.943 61.5283 233.953 61.5093 233.961 61.493C233.965 61.4849 233.969 61.4774 233.973 61.4706C233.974 61.4672 233.976 61.4639 233.978 61.4608C233.978 61.4593 233.98 61.4571 233.98 61.4564C233.981 61.4542 233.982 61.4521 231.228 60.0664C228.474 58.6807 228.475 58.6787 228.476 58.6767C228.477 58.6761 228.478 58.6742 228.478 58.673C228.48 58.6705 228.481 58.6683 228.482 58.6662C228.484 58.662 228.486 58.6584 228.487 58.6555C228.49 58.6496 228.492 58.6463 228.493 58.6453C228.494 58.6434 228.49 58.6512 228.48 58.6679C228.461 58.7015 228.42 58.771 228.356 58.8716C228.227 59.0727 228.004 59.3972 227.668 59.8056C226.998 60.6209 225.877 61.7746 224.158 62.9526C220.752 65.2869 214.813 67.8421 205.001 67.8421V74.0077Z" fill="#F3D94E" mask="url(#path-13-inside-3_63364_21856)"/>
<mask id="path-15-inside-4_63364_21856" fill="white">
<path d="M178.773 103.503C178.773 103.503 184.237 92.6445 205.001 92.6445C225.764 92.6445 231.228 103.503 231.228 103.503"/>
</mask>
<path d="M178.773 103.503C181.527 104.889 181.526 104.891 181.525 104.893C181.525 104.893 181.524 104.895 181.523 104.896C181.522 104.899 181.521 104.901 181.52 104.903C181.518 104.907 181.516 104.911 181.514 104.914C181.511 104.92 181.51 104.923 181.509 104.924C181.508 104.926 181.512 104.918 181.522 104.901C181.541 104.868 181.581 104.798 181.646 104.698C181.774 104.497 181.998 104.172 182.333 103.764C183.003 102.948 184.124 101.795 185.844 100.617C189.25 98.2825 195.188 95.7273 205.001 95.7273V89.5617C194.05 89.5617 186.875 92.4358 182.358 95.5308C180.116 97.0673 178.573 98.6283 177.57 99.8489C177.069 100.459 176.703 100.982 176.452 101.375C176.326 101.571 176.229 101.735 176.158 101.861C176.123 101.923 176.093 101.977 176.07 102.02C176.059 102.041 176.049 102.06 176.041 102.076C176.036 102.085 176.032 102.092 176.029 102.099C176.027 102.102 176.026 102.105 176.024 102.109C176.023 102.11 176.022 102.112 176.022 102.113C176.021 102.115 176.02 102.117 178.773 103.503ZM205.001 95.7273C214.813 95.7273 220.752 98.2825 224.158 100.617C225.877 101.795 226.998 102.948 227.668 103.764C228.004 104.172 228.227 104.497 228.356 104.698C228.42 104.798 228.461 104.868 228.48 104.901C228.49 104.918 228.494 104.926 228.493 104.924C228.492 104.923 228.49 104.92 228.487 104.914C228.486 104.911 228.484 104.907 228.482 104.903C228.481 104.901 228.48 104.899 228.478 104.896C228.478 104.895 228.477 104.893 228.476 104.893C228.475 104.891 228.474 104.889 231.228 103.503C233.982 102.117 233.981 102.115 233.98 102.113C233.98 102.112 233.978 102.11 233.978 102.109C233.976 102.105 233.974 102.102 233.973 102.099C233.969 102.092 233.965 102.085 233.961 102.076C233.953 102.06 233.943 102.041 233.931 102.02C233.908 101.977 233.879 101.923 233.844 101.861C233.772 101.735 233.675 101.571 233.55 101.375C233.298 100.982 232.933 100.459 232.432 99.8489C231.428 98.6283 229.886 97.0673 227.643 95.5308C223.127 92.4358 215.952 89.5617 205.001 89.5617V95.7273Z" fill="#F3D94E" mask="url(#path-15-inside-4_63364_21856)"/>
<path fill-rule="evenodd" clip-rule="evenodd" d="M114.991 61.6606C114.991 60.9894 114.446 60.4453 113.775 60.4453H27.2153C26.5441 60.4453 26 60.9894 26 61.6606V78.8668C26 79.538 26.5441 80.0821 27.2153 80.0821H53.3872C53.9661 80.0821 54.4599 79.6718 54.6086 79.1123C56.4708 72.1028 62.8774 66.9363 70.4944 66.9363C78.1114 66.9363 84.518 72.1028 86.3802 79.1123C86.5289 79.6718 87.0227 80.0821 87.6016 80.0821H113.775C114.446 80.0821 114.991 79.538 114.991 78.8668V61.6606Z" fill="#0B0C0C"/>
<circle cx="70.5029" cy="83.4756" r="9.60056" fill="#0B0C0C"/>
<path fill-rule="evenodd" clip-rule="evenodd" d="M26.0094 104.933C26.0094 105.604 26.5535 106.148 27.2247 106.148L113.785 106.148C114.456 106.148 115 105.604 115 104.933L115 87.7269C115 87.0557 114.456 86.5116 113.785 86.5116L87.6128 86.5116C87.0339 86.5116 86.5401 86.9219 86.3914 87.4814C84.5292 94.491 78.1226 99.6576 70.5056 99.6576C62.8885 99.6576 56.482 94.491 54.6197 87.4814C54.4711 86.9219 53.9772 86.5116 53.3983 86.5116L27.2247 86.5116C26.5535 86.5116 26.0094 87.0557 26.0094 87.7269L26.0094 104.933Z" fill="#0B0C0C"/>
<circle cx="70.5" cy="82.9453" r="68" stroke="#B1B4B6" stroke-width="5"/>
<line x1="188.185" y1="136.809" x2="130.185" y2="116.809" stroke="#B1B4B6" stroke-width="5"/>
</svg>
