<svg width="72" height="72" viewBox="0 0 72 72" fill="none" xmlns="http://www.w3.org/2000/svg">
<path d="M0 15.6C0 6.98436 6.98436 0 15.6 0H56.4C65.0156 0 72 6.98436 72 15.6V56.4C72 65.0156 65.0156 72 56.4 72H15.6C6.98436 72 0 65.0156 0 56.4V15.6Z" fill="#1D70B8"/>
<path d="M17.9679 57.9528C17.4613 58.2667 16.8386 58.4236 16.0995 58.4236C14.883 58.4236 13.8866 57.9988 13.1102 57.1494C12.3006 56.2957 11.8957 55.1283 11.8957 53.6469C11.8957 52.1489 12.3047 50.9479 13.1226 50.044C13.9405 49.1402 15.0221 48.6883 16.3673 48.6883C17.534 48.6883 18.4702 48.9875 19.1761 49.5858C19.886 50.18 20.2929 50.9228 20.3967 51.8141H18.5097C18.3644 51.1822 18.0094 50.7408 17.4447 50.4897C17.1292 50.3516 16.7783 50.2826 16.3922 50.2826C15.6532 50.2826 15.0449 50.565 14.5675 51.1299C14.0942 51.6907 13.8575 52.5359 13.8575 53.6658C13.8575 54.804 14.1149 55.6095 14.6298 56.0823C15.1446 56.5552 15.73 56.7916 16.386 56.7916C17.0295 56.7916 17.5568 56.6054 17.9679 56.233C18.3789 55.8564 18.6322 55.3647 18.7277 54.7579H16.604V53.2138H20.4278V58.1788H19.1574L18.9643 57.0239C18.5948 57.4632 18.2626 57.7729 17.9679 57.9528Z" fill="white"/>
<path d="M26.3256 58.4361C25.0136 58.4361 24.0109 58.0763 23.3175 57.3565C22.3875 56.4736 21.9225 55.2015 21.9225 53.5402C21.9225 51.8455 22.3875 50.5734 23.3175 49.7239C24.0109 49.0042 25.0136 48.6443 26.3256 48.6443C27.6376 48.6443 28.6403 49.0042 29.3336 49.7239C30.2595 50.5734 30.7224 51.8455 30.7224 53.5402C30.7224 55.2015 30.2595 56.4736 29.3336 57.3565C28.6403 58.0763 27.6376 58.4361 26.3256 58.4361ZM28.1379 55.9505C28.5821 55.3856 28.8043 54.5822 28.8043 53.5402C28.8043 52.5025 28.58 51.7011 28.1316 51.1362C27.6874 50.5671 27.0854 50.2826 26.3256 50.2826C25.5658 50.2826 24.9596 50.565 24.5071 51.1299C24.0545 51.6948 23.8282 52.4983 23.8282 53.5402C23.8282 54.5822 24.0545 55.3856 24.5071 55.9505C24.9596 56.5154 25.5658 56.7979 26.3256 56.7979C27.0854 56.7979 27.6895 56.5154 28.1379 55.9505Z" fill="white"/>
<path d="M31.5133 48.9268H33.5623L35.5552 55.9505L37.5668 48.9268H39.5597L36.4271 58.1788H34.6148L31.5133 48.9268Z" fill="white"/>
<path d="M39.3542 56.3083H41.2412V58.1788H39.3542V56.3083Z" fill="white"/>
<path d="M48.509 54.6136V48.9268H50.4583V54.6136C50.4583 55.5969 50.3068 56.3627 50.0037 56.9109C49.4391 57.9152 48.3617 58.4173 46.7715 58.4173C45.1813 58.4173 44.1018 57.9152 43.533 56.9109C43.2299 56.3627 43.0784 55.5969 43.0784 54.6136V48.9268H45.0277V54.6136C45.0277 55.2496 45.1024 55.7141 45.2519 56.007C45.4844 56.5259 45.9909 56.7853 46.7715 56.7853C47.5479 56.7853 48.0523 56.5259 48.2848 56.007C48.4343 55.7141 48.509 55.2496 48.509 54.6136Z" fill="white"/>
<path d="M60.4291 58.1788H57.9629L55.1292 54.1365L54.2137 55.0843V58.1788H52.3267V48.9268H54.2137V52.7368L57.7573 48.9268H60.236L56.4744 52.7368L60.4291 58.1788Z" fill="white"/>
<path fill-rule="evenodd" clip-rule="evenodd" d="M23.4771 21.1685C24.5369 21.6137 25.8087 21.1092 26.2326 20.0705C26.6868 19.0021 26.1721 17.7557 25.0517 17.3402C23.9616 16.9247 22.7504 17.4292 22.2962 18.4976C21.8723 19.5363 22.387 20.7234 23.4771 21.1685ZM18.6323 23.9285C19.7224 24.3737 20.9941 23.8691 21.4181 22.8304C21.8723 21.7621 21.3575 20.5156 20.2371 20.1298C19.147 19.6847 17.9358 20.1892 17.4816 21.2576C17.0577 22.2963 17.5724 23.4833 18.6323 23.9285ZM17.2394 29.1813C18.2992 29.6265 19.571 29.122 19.9949 28.0536C20.4491 26.9852 19.9343 25.7685 18.8139 25.353C17.7541 24.9078 16.5126 25.442 16.0584 26.4807C15.6345 27.5194 16.1493 28.7362 17.2394 29.1813ZM28.8368 22.8304C29.8966 23.2756 31.1683 22.7711 31.5923 21.7027C32.0465 20.6343 31.5317 19.4176 30.4113 19.0021C29.3212 18.5569 28.11 19.0911 27.6558 20.1298C27.2622 21.1982 27.7769 22.415 28.8368 22.8304ZM48.3373 21.1685C47.2472 21.6137 45.9755 21.1092 45.5818 20.0705C45.1276 19.0021 45.6424 17.7557 46.7325 17.3402C47.8226 16.9247 49.0641 17.4292 49.5183 18.4976C49.9119 19.5363 49.3971 20.7234 48.3373 21.1685ZM53.1519 23.9285C52.0618 24.3737 50.8203 23.8691 50.3964 22.8304C49.9422 21.7621 50.457 20.5156 51.5168 20.1298C52.6069 19.6847 53.8484 20.1892 54.3026 21.2576C54.7568 22.2963 54.2117 23.4833 53.1519 23.9285ZM54.5751 29.1813C53.485 29.6265 52.2132 29.122 51.7893 28.0536C51.3351 26.9852 51.8499 25.7685 52.9702 25.353C54.0603 24.9078 55.3018 25.442 55.756 26.4807C56.1497 27.5194 55.6349 28.7362 54.5751 29.1813ZM42.9474 22.8304C41.8573 23.2756 40.5855 22.7711 40.1616 21.7027C39.7377 20.6343 40.2222 19.4176 41.3426 19.0021C42.4327 18.5569 43.6741 19.0911 44.1284 20.1298C44.5523 21.1982 44.0375 22.415 42.9474 22.8304ZM37.0125 17.4589L39.7074 18.8537V14.966L37.0125 15.797C36.9519 15.7079 36.8611 15.6189 36.7399 15.5299L37.83 12.206H33.9541L35.014 15.5299C34.9231 15.6189 34.8323 15.6783 34.7414 15.797L32.0768 14.966V18.8537L34.7414 17.4589C34.8323 17.5479 34.9231 17.6666 35.014 17.726L33.4999 22.2963C33.4999 22.2963 33.4999 22.2963 33.4999 22.3259C33.4394 22.5633 33.3788 22.8008 33.3788 23.0382C33.3788 24.2549 34.3175 25.264 35.4984 25.442H35.559C35.6498 25.442 35.771 25.4717 35.8618 25.4717C35.9829 25.4717 36.0738 25.4717 36.1646 25.442H36.2252C37.4364 25.264 38.3751 24.2253 38.3751 23.0382C38.3751 22.8008 38.3448 22.5337 38.254 22.3259C38.254 22.3259 38.254 22.3259 38.254 22.2963L36.7097 17.726C36.8308 17.6666 36.9216 17.5479 37.0125 17.4589ZM35.8921 39.7464C41.0095 39.7464 45.8241 40.0729 50.1542 40.6961C51.3654 35.6806 52.8491 32.7723 54.3934 30.7542L51.4865 29.7452C51.7893 31.1994 51.8196 31.882 51.4865 32.7723C51.0323 32.3568 50.5781 31.4962 50.2147 30.1904L48.7915 34.7607C49.6394 34.1671 50.3056 33.811 51.0626 33.7813C49.7302 36.571 48.0345 37.3129 46.9444 37.1051C45.6424 36.8677 45.0368 35.74 45.2487 34.7607C45.5515 33.3658 46.9747 33.0097 47.6712 34.6123C48.9732 32.0304 46.7627 31.2291 45.3699 32.0007C47.5198 29.8639 47.762 27.9943 46.0057 25.7388C43.5833 27.5491 43.553 29.3891 44.6431 31.9116C43.2199 30.3091 40.9792 31.1697 41.7665 33.7516C42.796 32.2084 44.1586 33.1581 43.9467 34.6716C43.765 35.9477 42.0087 36.9864 39.8588 36.8084C36.7399 36.5413 36.5583 34.4342 36.4674 32.7129C37.2244 32.5645 38.6173 33.2471 39.7983 34.8794L40.1919 30.0123C38.9504 31.3181 37.7695 31.5852 36.4674 31.6149C36.8913 30.3091 38.8898 28.1723 38.8898 28.1723H32.7126C32.7126 28.1723 34.6506 30.3091 35.1048 31.6149C33.833 31.5852 32.6824 31.3181 31.3803 30.0123L31.8042 34.8794C32.9852 33.2471 34.3781 32.5942 35.1048 32.7129C35.014 34.4342 34.8323 36.5116 31.7437 36.8084C29.5635 36.9864 27.8375 35.9477 27.6558 34.6716C27.4439 33.1878 28.8065 32.2084 29.8057 33.7516C30.6233 31.1697 28.4128 30.3091 26.9594 31.9116C28.0797 29.3891 28.0495 27.5491 25.5665 25.7388C23.8102 27.9943 24.0525 29.8639 26.2326 32.0007C24.8095 31.2291 22.6293 32.0304 23.9011 34.6123C24.5975 32.98 26.051 33.3658 26.3538 34.7607C26.5657 35.74 25.9601 36.8677 24.6278 37.1051C23.568 37.3129 21.9025 36.571 20.5399 33.7813C21.2969 33.811 21.9631 34.1671 22.811 34.7607L21.3878 30.1904C21.0244 31.4962 20.5702 32.3271 20.0857 32.7723C19.7526 31.882 19.8132 31.1994 20.0857 29.7452L17.2091 30.7542C18.7231 32.802 20.2068 35.7103 21.4483 40.6961C25.9298 40.0729 30.7747 39.7464 35.8921 39.7464Z" fill="white"/>
</svg>
    